# xmcd
#
# Track frame offsets: 
#        150
#        18019
#        32790
#        51283
#        66062
#        79263
#        104968
#        129622
#        145015
#        166762
#
# Disc length: 2465 seconds
#
# Revision: 0
# Processed by: cddbd v1.5.2PL0 Copyright (c) Steve Scherf et al.
# Submitted via: ExactAudioCopy v0.99pb4
#
DISCID=84099f0a
DTITLE=Simon Felice - Simon Felice
DYEAR=2012
DGENRE=Americana
TTITLE0=Hey Bobby Ray
TTITLE1=You and I Belong
TTITLE2=New York Times
TTITLE3=Courtney Love
TTITLE4=Stormy-Eyed Sarah
TTITLE5=Charade
TTITLE6=Dawn Brady's Son
TTITLE7=Gimme All You Got
TTITLE8=Ballad of Sharon Tate
TTITLE9=Splendor in the Grass
EXTD=
EXTT0=
EXTT1=
EXTT2=
EXTT3=
EXTT4=
EXTT5=
EXTT6=
EXTT7=
EXTT8=
EXTT9=
PLAYORDER=
